<?xml version="1.0" standalone="no"?>
<!DOCTYPE svg PUBLIC "-//W3C//DTD SVG 20010904//EN"
 "http://www.w3.org/TR/2001/REC-SVG-20010904/DTD/svg10.dtd">
<svg version="1.0" xmlns="http://www.w3.org/2000/svg"
 width="115.000000pt" height="100.000000pt" viewBox="0 0 115.000000 100.000000"
 preserveAspectRatio="xMidYMid meet">

<g transform="translate(0.000000,100.000000) scale(0.100000,-0.100000)"
fill="#34947c" stroke="none">
<path d="M27 972 c-15 -17 -17 -64 -17 -475 0 -401 2 -457 16 -471 14 -14 78
-16 553 -16 404 0 540 3 549 12 9 9 12 128 12 474 0 407 -2 464 -16 478 -14
14 -77 16 -548 16 -504 0 -534 -1 -549 -18z m1085 -9 c17 -15 18 -43 18 -464
0 -394 -2 -449 -16 -463 -14 -14 -76 -16 -536 -16 -471 0 -523 2 -540 17 -17
15 -18 43 -18 461 0 400 2 447 17 464 15 17 45 18 536 18 470 0 522 -2 539
-17z"/>
<path d="M290 924 c-43 -18 -86 -59 -108 -99 -20 -39 -20 -131 1 -171 19 -37
79 -91 116 -106 65 -25 211 1 198 35 -5 14 -5 13 -67 -8 -53 -20 -116 -8 -168
31 -99 76 -83 228 30 283 52 25 121 27 162 6 27 -14 46 -13 46 5 0 15 -80 40
-128 40 -26 -1 -63 -8 -82 -16z"/>
<path d="M665 921 c-48 -22 -79 -54 -100 -103 -22 -55 -23 -748 0 -748 13 0
15 46 15 356 0 343 1 358 21 394 31 55 91 90 156 90 104 0 173 -60 181 -155 6
-71 -18 -119 -77 -157 -41 -26 -53 -29 -108 -26 -45 3 -71 10 -92 26 -17 12
-33 22 -36 22 -3 0 -5 -124 -5 -275 0 -238 2 -275 15 -275 13 0 15 34 15 246
0 231 1 246 18 239 9 -5 46 -10 82 -12 78 -5 136 20 183 79 53 66 50 181 -6
245 -62 70 -176 94 -262 54z"/>
<path d="M327 866 c-46 -17 -64 -32 -83 -67 -54 -105 55 -222 176 -189 25 7
40 17 40 27 0 11 -6 14 -22 8 -53 -16 -70 -17 -98 -5 -40 16 -80 65 -80 96 0
67 74 123 144 110 48 -9 50 -9 54 2 3 10 -50 32 -77 32 -9 -1 -33 -7 -54 -14z"/>
<path d="M695 860 c-50 -25 -75 -65 -75 -120 0 -56 26 -96 78 -121 73 -36 151
-14 192 54 40 66 13 153 -60 189 -46 23 -86 23 -135 -2z m121 -26 c36 -17 64
-58 64 -94 0 -54 -61 -110 -120 -110 -29 0 -76 26 -94 52 -18 26 -21 80 -5
109 14 26 68 59 97 59 13 0 39 -7 58 -16z"/>
<path d="M793 475 c-37 -16 -53 -42 -53 -87 0 -25 16 -54 65 -121 36 -48 65
-89 65 -92 0 -3 -34 -5 -75 -5 -60 0 -75 -3 -75 -15 0 -21 162 -22 180 0 14
17 15 15 -67 126 -71 97 -77 126 -37 158 22 17 41 21 100 21 59 0 74 3 74 15
0 20 -131 20 -177 0z"/>
<path d="M291 383 l3 -68 -57 -3 -57 -3 0 -49 0 -49 57 -3 57 -3 -3 -67 -2
-68 50 0 51 0 0 70 0 70 55 0 55 0 0 50 0 50 -55 0 -55 0 0 70 0 70 -51 0 -50
0 2 -67z"/>
<path d="M810 405 c-14 -17 -14 -17 67 -126 100 -137 83 -179 -76 -179 -65 0
-81 -3 -81 -15 0 -12 16 -15 80 -15 125 0 170 27 170 103 0 26 -15 53 -65 120
-36 48 -65 89 -65 92 0 3 29 5 65 5 51 0 65 3 65 15 0 21 -142 22 -160 0z"/>
</g>
</svg>
